# xmcd CD database file
#
# Track frame offsets:
#	150
#	18522
#	35492
#	52742
#	71310
#	88195
#	106960
#	127615
#	143027
#	160140
#	179930
#	202820
#	219295
#	234165
#	257400
#	272472
#
# Disc length: 3872 seconds
#
# Revision: 1
# Processed by: cddbd v1.5.2PL0 Copyright (c) Steve Scherf et al.
# Submitted via: cdripper 1.0.8
#
DISCID=ca0f1e10
DTITLE=Vários - Canto e Encanto Nativo - Vol. 7
DYEAR=1900
DGENRE=Naativa
TTITLE0=Prece - Osvaldir e Carlos Magrão
TTITLE1=Previsão - Adair de Freitas
TTITLE2=Pedaços de Tempo - Os Mateadores
TTITLE3=Pouso de Tropa - Grupo Alma de Campo 
TTITLE4=Pelos - José Claudio Machado
TTITLE5=Estampa do Pampa - Os Farrapos
TTITLE6=Ho! de Casa - Delcio Tavares
TTITLE7=Lavando a Alma - Cesar Passarinho
TTITLE8=Respeito ao Gaúcho - Os Mirins
TTITLE9=Vidro dos Olhos - Luiz Carlos Borges
TTITLE10=Reflexões de quem anda - Pedro Ortaça
TTITLE11=Tropeiro - Grupo Rodeio
TTITLE12=Milonga do amor presente - Ivan Vargas
TTITLE13=Milonga da integração - Daniel Torres
TTITLE14=Recanto do nosso amor - Leoanardo
TTITLE15=Pedaço de chão - Parceiros
EXTD=
EXTT0=
EXTT1=
EXTT2=
EXTT3=
EXTT4=
EXTT5=
EXTT6=
EXTT7=
EXTT8=
EXTT9=
EXTT10=
EXTT11=
EXTT12=
EXTT13=
EXTT14=
EXTT15=
PLAYORDER=
